<?xml version="1.0" standalone="no"?><!DOCTYPE svg PUBLIC "-//W3C//DTD SVG 1.1//EN" "http://www.w3.org/Graphics/SVG/1.1/DTD/svg11.dtd"><svg t="1537524100236" class="icon" style="" viewBox="0 0 1134 1024" version="1.1" xmlns="http://www.w3.org/2000/svg" p-id="6428" xmlns:xlink="http://www.w3.org/1999/xlink" width="221.484375" height="200"><defs><style type="text/css"></style></defs><path d="M1134.70052 540.583504c0-91.80634-147.923671-161.488724-344.132471-161.488724a761.580823 761.580823 0 0 0-102.303107 7.266993V161.488724c0-91.80634-147.923671-161.488724-344.132471-161.488724S0 68.874941 0 161.488724v482.851285c0 91.80634 147.923671 161.488724 344.132471 161.488725A761.580823 761.580823 0 0 0 446.516322 799.369185v63.142091c0 91.80634 147.923671 161.488724 344.132472 161.488724s344.132471-69.278663 344.132471-161.488724V540.583504z m-417.367607-107.390001a696.097146 696.097146 0 0 1 72.669926-3.794985c168.755717 0 294.393944 58.458918 294.393944 110.781264s-125.638227 110.781265-293.747989 110.781265c-24.223309 0-46.83173-1.211165-68.713453-3.391263C589.433843 634.408453 496.900804 585.073648 496.900804 540.583504a38.918783 38.918783 0 0 1 4.360196-17.279293c19.378647-39.806971 102.706829-78.160543 216.071913-90.110708z m7.670714 374.65384c-134.19713-12.676865-228.183567-62.496136-228.183567-107.632235v-73.961836c48.446617 37.223151 129.190979 63.545813 226.084214 71.943227 21.800978 1.85712 44.409399 2.906797 67.74452 2.906797 127.414603 0 234.15865-29.229459 293.747989-74.850024v73.961836c0 52.483835-125.638227 110.942754-293.747989 110.942754-22.689166 0-44.651632-1.372654-65.645167-3.714241zM344.132471 50.384482C512.242233 50.384482 637.88046 108.8434 637.88046 161.488724S512.242233 271.866267 344.132471 271.866267 50.384482 213.407349 50.384482 161.488724 176.345687 50.384482 344.132471 50.384482zM446.516322 700.780319v47.073963a679.948273 679.948273 0 0 1-102.383851 7.266992c-167.786784 0-293.747989-58.297429-293.747989-110.539031v-75.495979c59.42785 45.620565 166.333386 75.253745 293.747989 75.253745A761.580823 761.580823 0 0 0 446.516322 637.88046z m0-160.196815v45.862798a679.867529 679.867529 0 0 1-102.383851 7.58997c-167.70604 0-293.667245-58.86264-293.667245-111.104242v-75.253746c59.42785 45.53982 166.333386 75.173001 293.74799 75.173001a733.401041 733.401041 0 0 0 133.712663-11.788677 99.557798 99.557798 0 0 0-31.490301 69.440152zM344.132471 432.143826c-168.109762 0-293.747989-58.539663-293.747989-110.781265v-73.961836c59.42785 45.53982 166.333386 75.173001 293.747989 75.173002s234.15865-29.229459 293.747989-74.850024v74.04258c0 51.83788-125.638227 110.377543-293.747989 110.377543z m740.425801 429.882984c0 52.160858-125.799716 110.619776-293.909478 110.619776s-293.747989-58.458918-293.74799-110.781265V789.679861l3.229775-0.726699c59.993061 44.24791 165.445198 72.669926 290.679703 72.669926 127.414603 0 234.15865-29.229459 293.74799-74.850024z" fill="#f9f28b" p-id="6429"></path></svg>