<?xml version="1.0" standalone="no"?><!DOCTYPE svg PUBLIC "-//W3C//DTD SVG 1.1//EN" "http://www.w3.org/Graphics/SVG/1.1/DTD/svg11.dtd"><svg t="1537524012384" class="icon" style="" viewBox="0 0 1024 1024" version="1.1" xmlns="http://www.w3.org/2000/svg" p-id="3968" xmlns:xlink="http://www.w3.org/1999/xlink" width="200" height="200"><defs><style type="text/css"></style></defs><path d="M952.8 315.7l-105-190.1C838.4 108.5 821 98 802.3 98H221.7c-18.8 0-36.1 10.5-45.5 27.6l-105 190.1c-11 19.8-9.3 44.8 4.3 62.7l395.3 524.8c10.5 14 25.9 21 41.3 21 15.4 0 30.7-7 41.3-21l395.3-524.8c13.4-17.9 15.1-42.8 4.1-62.7z m-42.6 33.9L514.9 874.4c-1.4 1.9-2.5 1.9-2.9 1.9s-1.5 0-2.9-1.9L113.8 349.6c-2.2-2.9-2.4-7.4-0.6-10.7l105-190.1c1.1-2 2.5-2.8 3.5-2.8h580.5c1 0 2.4 0.9 3.5 2.8l105 190.1c1.9 3.3 1.7 7.8-0.5 10.7z" p-id="3969" fill="#f4ea2a"></path><path d="M744 296H280c-13.3 0-24 10.7-24 24s10.7 24 24 24h464c13.3 0 24-10.7 24-24s-10.7-24-24-24z" p-id="3970" fill="#f4ea2a"></path></svg>